<?xml version="1.0" encoding="UTF-8"?>
<svg width="288px" height="123px" viewBox="0 0 288 123" version="1.1" xmlns="http://www.w3.org/2000/svg" xmlns:xlink="http://www.w3.org/1999/xlink">
    <title>db-logo-black</title>
    <g id="Page-1" stroke="none" stroke-width="1" fill="none" fill-rule="evenodd">
        <g id="db-logo-black" fill-rule="nonzero">
            <g id="Group-3" transform="translate(108.340000, 20.120000)" fill="#1D1D1B">
                <g id="Group" transform="translate(-0.000000, 0.000000)">
                    <path d="M0.01,37.8640077 L0.01,-3.39183001e-15 L17.54,-3.39183001e-15 C20.72,-3.39183001e-15 23.41,0.534640552 25.53,1.68029888 C27.65,2.82595721 29.35,4.24848296 30.55,6.07198913 C31.68,7.8954953 32.53,9.85266161 33.02,11.876658 C33.44,13.9674844 33.73,16.001028 33.73,18.0154772 C33.73,20.316341 33.45,22.6076576 32.95,24.8321442 C32.38,27.1234609 31.53,29.2238345 30.26,31.2478309 C28.99,33.2049972 27.29,34.8280131 25.1,36.1073316 C22.98,37.2529899 20.29,37.8640077 17.18,37.8640077 L1.42108547e-14,37.8640077 L0.01,37.8640077 Z M8.14,6.54934677 L8.14,31.381491 L16.2,31.381491 C18.32,31.381491 20.09,30.7704732 21.43,29.5579848 C22.77,28.3454964 23.76,26.7893105 24.33,24.8321442 C24.97,22.9513551 25.25,20.8509815 25.25,18.626495 C25.25,15.18952 24.76,12.6213359 23.84,10.7978297 C22.85,9.04115363 21.72,7.82866523 20.45,7.3513076 C19.11,6.81666704 17.69,6.54934677 16.14,6.54934677 L8.15,6.54934677 L8.14,6.54934677 Z" id="Shape"></path>
                    <path d="M56.66,29.8253051 L64.58,29.8253051 C63.66,32.9281297 62.04,35.2289935 59.56,36.5751421 C57.16,37.9881207 54.54,38.7327986 51.64,38.7327986 C48.74,38.7327986 46.2,38.1886109 44.01,37.2434428 C41.89,36.2982747 40.12,34.6752587 38.92,32.383942 C37.65,30.0926254 37.08,27.1234609 37.08,23.4096185 C37.08,22.1971301 37.22,20.8414344 37.5,19.3616257 C37.85,17.8054398 38.49,16.2588011 39.41,14.7026152 C40.4,13.1559765 41.81,11.8671108 43.72,10.7882826 C45.63,9.70945432 48.1,9.17481377 51.14,9.17481377 C52.76,9.17481377 54.32,9.44213404 55.95,9.84311446 C57.51,10.3109249 58.99,11.1224329 60.33,12.2012612 C61.74,13.3469195 62.8,14.9699355 63.65,16.9843847 C64.5,19.0752111 64.92,21.6433952 64.92,24.6793898 L64.92,25.9587083 L44.77,25.9587083 C44.91,27.7822144 45.41,29.3956832 46.32,30.7513789 C47.17,32.1643575 48.94,32.8422054 51.62,32.8422054 C52.75,32.8422054 53.81,32.5748851 54.8,32.0306974 C55.72,31.4865097 56.36,30.7513789 56.64,29.8062108 M44.98,21.1660376 L56.93,21.1660376 C56.79,19.0752111 56.08,17.5954025 54.95,16.6502343 C53.75,15.7050662 52.47,15.2277086 50.99,15.2277086 C47.45,15.2277086 45.4,17.251705 44.98,21.1660376" id="Shape"></path>
                    <path d="M96.74,18.626495 L96.74,37.9976678 L88.96,37.9976678 L88.96,20.9941888 C88.96,20.0490207 88.89,19.1706827 88.68,18.3591747 C88.47,17.6144968 88.05,16.879366 87.26,16.3351783 C86.56,15.7337077 85.42,15.4568403 83.94,15.4568403 C82.74,15.4568403 81.75,15.6668776 80.83,16.2015182 C79.91,16.6693287 79.13,17.4140066 78.64,18.4260048 C78.08,19.3711729 77.86,20.5836613 77.86,21.9298098 L77.86,37.9976678 L70.08,37.9976678 L70.08,9.91949168 L77.5,9.91949168 L77.5,14.0343145 L77.57,14.0343145 C79.62,10.7978297 82.59,9.17481377 86.48,9.17481377 C88.39,9.17481377 90.16,9.57579418 91.71,10.253642 C93.26,10.9983199 94.47,12.0771482 95.39,13.4901268 C96.24,14.9031054 96.73,16.5929514 96.73,18.626495" id="Path"></path>
                    <path d="M0.19,83.5853221 L0.19,45.7213144 L19.49,45.7213144 C22.53,45.7213144 24.93,46.198672 26.77,47.2106702 C28.61,48.2226684 29.88,49.4351568 30.66,50.9245126 C31.37,52.4043213 31.72,53.8936771 31.72,55.4403159 C31.72,57.7984626 31.3,59.4883086 30.38,60.5671369 C29.39,61.6459651 28.26,62.5243032 26.92,63.202151 C30.95,64.6819597 33,67.7275014 33,72.3769648 C33,73.8663206 32.72,75.2792992 32.15,76.6922778 C31.51,78.0384264 30.67,79.1840847 29.61,80.20563 C28.69,81.017138 27.84,81.6854387 26.92,82.0959663 C26.07,82.5733239 24.8,82.9074742 23.25,83.1747945 C21.69,83.4421148 19.64,83.5853221 17.03,83.5853221 L0.21,83.5853221 L0.19,83.5853221 Z M8.18,66.9828235 L8.18,77.1028054 L18.36,77.1028054 C22.6,77.1028054 24.72,75.2124691 24.72,71.575004 C24.72,70.0188181 24.16,68.8731597 22.95,68.0616518 C21.82,67.3169738 20.41,66.9828235 18.71,66.9828235 L8.18,66.9828235 L8.18,66.9828235 Z M8.18,52.2706612 L8.18,60.5671369 L17.93,60.5671369 C19.63,60.5671369 21.04,60.1661565 22.17,59.4883086 C23.23,58.8200079 23.79,57.7411797 23.79,56.3186539 C23.79,54.8961282 23.23,53.8172999 22.23,53.2158293 C21.24,52.5475286 19.69,52.2706612 17.71,52.2706612 L8.17,52.2706612 L8.18,52.2706612 Z" id="Shape"></path>
                    <path d="M39.42,83.5853221 L39.42,55.5166931 L46.91,55.5166931 L46.91,60.4430239 L46.98,60.4430239 C47.76,59.1637054 48.39,58.1517072 49.03,57.4070293 C49.6,56.6623514 50.37,56.0513336 51.36,55.5835232 C52.35,55.0488826 53.62,54.7720152 55.11,54.7720152 C55.46,54.7720152 55.96,54.8388452 56.6,54.9056753 L56.6,62.4001902 C56.17,62.3333601 55.4,62.3333601 54.41,62.3333601 C49.6,62.3333601 47.27,64.5578467 47.27,69.016367 L47.27,83.5948692 L39.43,83.5948692 L39.42,83.5853221 Z" id="Path"></path>
                    <path d="M84.95,62.9348307 L84.95,78.1243507 C84.95,79.6709895 85.09,80.7498177 85.38,81.3608355 C85.66,81.9718533 86.09,82.2391736 86.65,82.4492109 L86.65,83.5948692 L78.31,83.5948692 C77.96,82.516041 77.67,81.5040428 77.6,80.2820072 C76.33,81.5708729 74.98,82.4492109 73.64,83.1843417 C72.22,83.9290196 70.39,84.33 68.05,84.33 C66.5,84.33 65.01,83.9958497 63.67,83.4516619 C62.33,82.8406442 61.2,82.0291362 60.35,80.7498177 C59.5,79.5373293 59.08,78.0479735 59.08,76.1576373 C59.08,74.4009612 59.43,72.9211525 60.21,71.641834 C60.92,70.3625156 61.91,69.3409702 63.18,68.6726695 C64.45,67.9279916 65.94,67.4601811 67.71,67.1833137 L74.64,66.1713155 C76.48,65.9708253 77.33,65.2261474 77.33,64.013659 C77.33,62.6006804 76.91,61.7223424 75.91,61.3118148 C74.92,60.9108344 73.72,60.7103442 72.31,60.7103442 C70.54,60.7103442 69.41,61.1113246 68.71,61.8560025 C68.07,62.6006804 67.65,63.4790185 67.51,64.6246768 L60.02,64.6246768 C60.3,61.9228326 61.08,59.8988362 62.35,58.4190275 C63.62,57.0060489 65.18,55.9845036 66.94,55.5166931 C68.78,55.0488826 70.83,54.7815623 73.23,54.7815623 C74.93,54.7815623 76.69,55.0488826 78.46,55.449863 C80.23,55.9272206 81.78,56.7291815 83.06,57.951217 C84.33,59.1637054 84.97,60.7867214 84.97,62.9443779 M77.34,73.5417174 L77.34,70.0283652 C76.42,70.639383 74.65,71.1740235 72.11,71.5845511 C70.41,71.7850413 69.07,72.1955689 68.22,72.7970395 C67.3,73.3412272 66.87,74.3532254 66.87,75.6993739 C66.87,76.9118623 67.22,77.7233703 68,78.267558 C68.71,78.8021986 69.56,79.079066 70.48,79.079066 C71.61,79.079066 72.74,78.8785758 73.8,78.4107653 C74.86,78.0002377 75.71,77.3319371 76.34,76.453599 C77.05,75.642091 77.33,74.6969229 77.33,73.5512646" id="Shape"></path>
                </g>
                <polygon id="Path" points="117.39 55.5071459 106.79 83.5853221 98.66 83.5853221 88.13 55.5071459 96.82 55.5071459 102.83 76.2244673 102.9 76.2244673 109.19 55.5071459"></polygon>
                <g id="Group" transform="translate(119.510000, 54.762468)">
                    <path d="M19.58,20.6504913 L27.5,20.6504913 C26.58,23.753316 24.88,26.0541798 22.48,27.4003283 C20.08,28.8133069 17.46,29.5579848 14.56,29.5579848 C11.66,29.5579848 9.12,29.0137971 6.93,28.068629 C4.74,27.1234609 3.04,25.5004449 1.84,23.2091283 C0.56,20.9178116 -2.84217094e-14,17.9486471 -2.84217094e-14,14.2348047 C-2.84217094e-14,13.0223163 0.14,11.6666206 0.42,10.186812 C0.77,8.63062606 1.41,7.08398732 2.33,5.52780143 C3.32,3.98116269 4.73,2.69229707 6.65,1.61346881 C8.56,0.534640552 11.03,2.71346401e-14 14,2.71346401e-14 C15.7,2.71346401e-14 17.25,0.267320276 18.88,0.677847843 C20.44,1.14565833 21.92,1.95716631 23.26,3.03599457 C24.67,4.18165289 25.73,5.80466886 26.58,7.82866523 C27.43,9.91949168 27.85,12.4876758 27.85,15.5236703 L27.85,16.8029888 L7.7,16.8029888 C7.84,18.626495 8.34,20.2399638 9.26,21.5956595 C10.11,23.0086381 11.88,23.6864859 14.56,23.6864859 C15.69,23.6864859 16.75,23.4191656 17.67,22.8749779 C18.66,22.3307902 19.3,21.5956595 19.58,20.6504913 M7.92,12.0103181 L19.87,12.0103181 C19.73,9.91949168 19.02,8.43968301 17.89,7.49451489 C16.69,6.54934677 15.42,6.07198913 13.93,6.07198913 C10.4,6.07198913 8.35,8.09598551 7.92,12.0103181" id="Shape"></path>
                    <path d="M59.59,9.4516812 L59.59,28.8133069 L51.88,28.8133069 L51.88,11.8098279 C51.88,10.8646598 51.81,9.98632175 51.6,9.17481377 C51.39,8.43013585 50.96,7.69500509 50.18,7.15081739 C49.47,6.54934677 48.34,6.27247934 46.86,6.27247934 C45.65,6.27247934 44.67,6.4825167 43.75,7.01715725 C42.83,7.48496773 42.06,8.22964565 41.56,9.24164384 C40.99,10.186812 40.78,11.3993004 40.78,12.7454489 L40.78,28.8133069 L33,28.8133069 L33,0.744677912 L40.42,0.744677912 L40.42,4.85950074 L40.49,4.85950074 C42.54,1.62301596 45.51,0 49.4,0 C51.31,0 53.07,0.400980414 54.63,1.07882826 C56.18,1.82350617 57.38,2.90233443 58.3,4.32486018 C59.15,5.73783879 59.57,7.42768482 59.57,9.4516812" id="Path"></path>
                </g>
            </g>
            <rect id="Rectangle" fill="#FFFFFF" x="0.82" y="18.76" width="83.75" height="86.13"></rect>
            <path d="M8.42,30.02 C23.16,35.69 35.06,42.1 46.13,50.8 L59.95,39.91 C60.5,26.64 59.13,13.46 57.66,0 C67.27,13.64 73.5,25.72 78.25,42.29 C78.8,44.3 77.52,46.31 76.42,48.51 C74.41,51.9 71.48,55.01 68.91,57.57 C71.84,59.22 73.67,61.23 75.13,63.79 C78.43,66.54 78.61,66.17 74.76,67.63 C72.56,69.74 70.37,70.65 66.34,71.2 C67.62,77.24 69.45,83.28 67.62,87.49 C60.11,103.14 49.59,112.02 35.77,122.27 C42.45,109.55 48.67,96 53.07,81.45 C49.22,75.96 45.75,70.47 42.45,64.7 C28.63,63.97 13.34,57.75 2.91,48.69 C10.96,52.08 23.5,54.64 30.09,50.98 C24.42,42.47 18.47,37.52 8.4,30.02" id="Path" fill="#1D1D1B"></path>
            <polygon id="Path" fill="#1D1D1B" points="73.32 19.86 83.66 19.86 83.66 103.88 60.14 103.88 60.14 106.08 85.85 106.08 85.85 17.67 73.32 17.67"></polygon>
            <polygon id="Path" fill="#1D1D1B" points="0 17.67 0 106.08 40 106.08 40 103.89 2.01 103.89 2.01 19.86 55.47 19.86 55.47 17.67"></polygon>
            <path d="M80.8,9.17 L80.8,10.62 L81.92,10.62 C82.47,10.62 82.73,10.25 82.73,9.91 C82.73,9.54 82.47,9.17 81.92,9.17 L80.8,9.17 Z M81.96,8.6 C82.84,8.6 83.34,9.2 83.34,9.9 C83.34,10.45 83.01,10.94 82.44,11.13 L83.43,12.51 L82.73,12.51 L81.77,11.19 L80.8,11.19 L80.8,12.51 L80.19,12.51 L80.19,8.6 L81.95,8.6 L81.96,8.6 Z M81.63,14.01 C83.57,14.01 85.06,12.5 85.06,10.58 C85.06,8.66 83.57,7.15 81.63,7.15 C79.69,7.15 78.22,8.65 78.22,10.58 C78.22,12.51 79.72,14.01 81.63,14.01 M81.63,6.47 C83.92,6.47 85.74,8.29 85.74,10.58 C85.74,12.87 83.92,14.67 81.63,14.67 C79.34,14.67 77.54,12.85 77.54,10.58 C77.54,8.31 79.36,6.47 81.63,6.47" id="Shape" fill="#1D1D1B"></path>
        </g>
    </g>
</svg>